# xmcd
#
# Track frame offsets: 
#        150
#        17675
#        37315
#        58570
#        78330
#        94510
#        114992
#        137357
#        158412
#        177385
#
# Disc length: 2618 seconds
#
# Revision: 5
# Processed by: cddbd v1.5.2PL0 Copyright (c) Steve Scherf et al.
# Submitted via: ExactAudioCopy v1.0b3
#
DISCID=700a380a
DTITLE=王菲 - 胡思亂想
DYEAR=1994
DGENRE=Pop
TTITLE0=胡思亂想
TTITLE1=誓言
TTITLE2=天與地
TTITLE3=夢中人
TTITLE4=知己知彼
TTITLE5=純情
TTITLE6=遊戲的終點
TTITLE7=夢遊
TTITLE8=藍色時份
TTITLE9=回憶是紅色天空
EXTD=YEAR: 1994 ID3G: 13
EXTT0=
EXTT1=
EXTT2=
EXTT3=
EXTT4=
EXTT5=
EXTT6=
EXTT7=
EXTT8=
EXTT9=
PLAYORDER=
